<svg width="257" height="15" viewBox="0 0 257 15" fill="none" xmlns="http://www.w3.org/2000/svg">
<path d="M4.656 14.6C4.54933 14.6 4.45333 14.5627 4.368 14.488C4.29333 14.4133 4.256 14.3173 4.256 14.2V13.096C3.46667 13 2.78933 12.7973 2.224 12.488C1.66933 12.1787 1.248 11.8053 0.96 11.368C0.682667 10.92 0.533333 10.4453 0.512 9.944C0.512 9.85867 0.544 9.784 0.608 9.72C0.682667 9.64533 0.768 9.608 0.864 9.608H2.88C3.008 9.608 3.10933 9.63467 3.184 9.688C3.26933 9.73067 3.35467 9.8 3.44 9.896C3.57867 10.1733 3.79733 10.4027 4.096 10.584C4.40533 10.7653 4.82133 10.856 5.344 10.856C5.952 10.856 6.416 10.76 6.736 10.568C7.056 10.376 7.216 10.1147 7.216 9.784C7.216 9.54933 7.13067 9.35733 6.96 9.208C6.8 9.05867 6.544 8.92533 6.192 8.808C5.84 8.69067 5.31733 8.55733 4.624 8.408C3.33333 8.152 2.37333 7.76267 1.744 7.24C1.11467 6.71733 0.8 5.976 0.8 5.016C0.8 4.16267 1.10933 3.43733 1.728 2.84C2.34667 2.232 3.18933 1.85867 4.256 1.72V0.599999C4.256 0.482666 4.29333 0.386666 4.368 0.311999C4.45333 0.237333 4.54933 0.2 4.656 0.2H5.984C6.10133 0.2 6.19733 0.237333 6.272 0.311999C6.34667 0.386666 6.384 0.482666 6.384 0.599999V1.752C7.088 1.86933 7.69067 2.09333 8.192 2.424C8.704 2.744 9.09333 3.112 9.36 3.528C9.62667 3.944 9.77067 4.35467 9.792 4.76C9.792 4.84533 9.76 4.92533 9.696 5C9.632 5.064 9.552 5.096 9.456 5.096H7.344C7.216 5.096 7.10933 5.07467 7.024 5.032C6.94933 4.98933 6.88 4.92 6.816 4.824C6.752 4.57867 6.576 4.37067 6.288 4.2C6.01067 4.02933 5.664 3.944 5.248 3.944C4.768 3.944 4.4 4.02933 4.144 4.2C3.888 4.37067 3.76 4.62133 3.76 4.952C3.76 5.176 3.82933 5.36267 3.968 5.512C4.11733 5.66133 4.352 5.8 4.672 5.928C5.00267 6.04533 5.472 6.168 6.08 6.296C7.072 6.47733 7.86133 6.70667 8.448 6.984C9.03467 7.25067 9.46667 7.59733 9.744 8.024C10.0213 8.45067 10.16 8.99467 10.16 9.656C10.16 10.5947 9.81867 11.3627 9.136 11.96C8.45333 12.5573 7.536 12.9307 6.384 13.08V14.2C6.384 14.3173 6.34667 14.4133 6.272 14.488C6.19733 14.5627 6.10133 14.6 5.984 14.6H4.656ZM93.8039 13C93.6972 13 93.6065 12.9627 93.5319 12.888C93.4572 12.8133 93.4199 12.7227 93.4199 12.616V2.2C93.4199 2.08267 93.4519 1.98667 93.5159 1.912C93.5905 1.83733 93.6865 1.8 93.8039 1.8H98.0919C99.3719 1.8 100.38 2.104 101.116 2.712C101.852 3.30933 102.22 4.18933 102.22 5.352C102.22 6.51467 101.852 7.39467 101.116 7.992C100.391 8.57867 99.3825 8.872 98.0919 8.872H95.7079V12.616C95.7079 12.7227 95.6705 12.8133 95.5959 12.888C95.5319 12.9627 95.4412 13 95.3239 13H93.8039ZM98.0119 7.096C98.6305 7.096 99.1052 6.952 99.4359 6.664C99.7665 6.36533 99.9319 5.928 99.9319 5.352C99.9319 4.79733 99.7719 4.36533 99.4519 4.056C99.1319 3.736 98.6519 3.576 98.0119 3.576H95.6759V7.096H98.0119ZM177.413 13C177.307 13 177.216 12.9627 177.141 12.888C177.067 12.8133 177.029 12.7227 177.029 12.616V2.2C177.029 2.08267 177.061 1.98667 177.125 1.912C177.2 1.83733 177.296 1.8 177.413 1.8H184.453C184.571 1.8 184.667 1.83733 184.741 1.912C184.816 1.98667 184.853 2.08267 184.853 2.2V3.256C184.853 3.37333 184.816 3.46933 184.741 3.544C184.667 3.608 184.571 3.64 184.453 3.64H179.189V6.472H184.101C184.219 6.472 184.315 6.50933 184.389 6.584C184.464 6.648 184.501 6.73867 184.501 6.856V7.848C184.501 7.96533 184.464 8.06133 184.389 8.136C184.315 8.2 184.219 8.232 184.101 8.232H179.189V11.16H184.581C184.699 11.16 184.795 11.1973 184.869 11.272C184.944 11.3467 184.981 11.4427 184.981 11.56V12.616C184.981 12.7333 184.944 12.8293 184.869 12.904C184.795 12.968 184.699 13 184.581 13H177.413Z" fill="#285193"/>
<path d="M19.0254 13C18.9187 13 18.828 12.968 18.7534 12.904C18.6894 12.8293 18.6574 12.7387 18.6574 12.632V3.672L16.0014 5.72C15.9267 5.784 15.8467 5.816 15.7614 5.816C15.6654 5.816 15.5747 5.76267 15.4894 5.656L15.0734 5.128C15.02 5.05333 14.9934 4.97867 14.9934 4.904C14.9934 4.776 15.0467 4.67467 15.1534 4.6L18.6414 1.912C18.7587 1.83733 18.8974 1.8 19.0574 1.8H19.8734C19.98 1.8 20.0654 1.83733 20.1294 1.912C20.204 1.976 20.2414 2.06133 20.2414 2.168V12.632C20.2414 12.7387 20.204 12.8293 20.1294 12.904C20.0654 12.968 19.98 13 19.8734 13H19.0254ZM26.5251 13.16C25.1491 13.16 24.1411 12.76 23.5011 11.96C22.8611 11.16 22.5198 10.1093 22.4771 8.808C22.4665 8.52 22.4611 8.056 22.4611 7.416C22.4611 6.75467 22.4665 6.27467 22.4771 5.976C22.5091 4.696 22.8505 3.656 23.5011 2.856C24.1518 2.04533 25.1598 1.64 26.5251 1.64C27.9011 1.64 28.9145 2.04533 29.5651 2.856C30.2158 3.656 30.5571 4.696 30.5891 5.976C30.6105 6.57333 30.6211 7.05333 30.6211 7.416C30.6211 7.768 30.6105 8.232 30.5891 8.808C30.5465 10.1093 30.2051 11.16 29.5651 11.96C28.9251 12.76 27.9118 13.16 26.5251 13.16ZM26.5251 11.784C27.3251 11.784 27.9278 11.5173 28.3331 10.984C28.7491 10.4507 28.9678 9.69867 28.9891 8.728C29.0105 8.10933 29.0211 7.66133 29.0211 7.384C29.0211 7.08533 29.0105 6.648 28.9891 6.072C28.9678 5.112 28.7545 4.36 28.3491 3.816C27.9438 3.272 27.3358 3 26.5251 3C25.7251 3 25.1171 3.272 24.7011 3.816C24.2958 4.36 24.0825 5.112 24.0611 6.072L24.0451 7.384L24.0611 8.728C24.0825 9.69867 24.2958 10.4507 24.7011 10.984C25.1171 11.5173 25.7251 11.784 26.5251 11.784ZM36.0254 13C35.9187 13 35.828 12.968 35.7534 12.904C35.6894 12.8293 35.6574 12.7387 35.6574 12.632V3.672L33.0014 5.72C32.9267 5.784 32.8467 5.816 32.7614 5.816C32.6654 5.816 32.5747 5.76267 32.4894 5.656L32.0734 5.128C32.02 5.05333 31.9934 4.97867 31.9934 4.904C31.9934 4.776 32.0467 4.67467 32.1534 4.6L35.6414 1.912C35.7587 1.83733 35.8974 1.8 36.0574 1.8H36.8734C36.98 1.8 37.0654 1.83733 37.1294 1.912C37.204 1.976 37.2414 2.06133 37.2414 2.168V12.632C37.2414 12.7387 37.204 12.8293 37.1294 12.904C37.0654 12.968 36.98 13 36.8734 13H36.0254ZM43.2211 13.16C42.3785 13.16 41.6478 13.0267 41.0291 12.76C40.4211 12.4827 39.9571 12.1253 39.6371 11.688C39.3278 11.2507 39.1625 10.792 39.1411 10.312C39.1411 10.216 39.1731 10.1413 39.2371 10.088C39.3011 10.024 39.3811 9.992 39.4771 9.992H40.2611C40.4851 9.992 40.6345 10.1093 40.7091 10.344C40.8478 10.8773 41.1465 11.256 41.6051 11.48C42.0638 11.6933 42.6025 11.8 43.2211 11.8C43.9785 11.8 44.5811 11.624 45.0291 11.272C45.4771 10.9093 45.7011 10.392 45.7011 9.72C45.7011 8.42933 44.9171 7.784 43.3491 7.784H41.8291C41.7225 7.784 41.6318 7.752 41.5571 7.688C41.4931 7.61333 41.4611 7.52267 41.4611 7.416V6.984C41.4611 6.83467 41.5198 6.69067 41.6371 6.552L44.7411 3.16H40.0211C39.9145 3.16 39.8238 3.128 39.7491 3.064C39.6851 2.98933 39.6531 2.89867 39.6531 2.792V2.184C39.6531 2.07733 39.6851 1.98667 39.7491 1.912C39.8238 1.83733 39.9145 1.8 40.0211 1.8H46.4051C46.5225 1.8 46.6131 1.83733 46.6771 1.912C46.7518 1.976 46.7891 2.06667 46.7891 2.184V2.76C46.7891 2.888 46.7305 3.01067 46.6131 3.128L43.5251 6.568L43.7811 6.584C44.8691 6.616 45.7278 6.89867 46.3571 7.432C46.9865 7.96533 47.3011 8.744 47.3011 9.768C47.3011 10.4613 47.1251 11.064 46.7731 11.576C46.4211 12.088 45.9358 12.4827 45.3171 12.76C44.6985 13.0267 43.9998 13.16 43.2211 13.16ZM50.4465 13C50.3505 13 50.2705 12.968 50.2065 12.904C50.1532 12.8293 50.1265 12.744 50.1265 12.648L50.1585 12.504L54.1425 3.192H48.8945C48.7878 3.192 48.6972 3.16 48.6225 3.096C48.5585 3.02133 48.5265 2.93067 48.5265 2.824V2.184C48.5265 2.06667 48.5585 1.976 48.6225 1.912C48.6972 1.83733 48.7878 1.8 48.8945 1.8H55.4545C55.5718 1.8 55.6625 1.83733 55.7265 1.912C55.8012 1.976 55.8385 2.06667 55.8385 2.184V2.776C55.8385 2.968 55.7958 3.176 55.7105 3.4L51.7745 12.6C51.7212 12.7173 51.6572 12.8133 51.5825 12.888C51.5185 12.9627 51.4278 13 51.3105 13H50.4465ZM56.6588 13C56.5521 13 56.4614 12.968 56.3868 12.904C56.3228 12.8293 56.2908 12.7387 56.2908 12.632V11.48C56.2908 11.3733 56.3228 11.288 56.3868 11.224C56.4614 11.1493 56.5521 11.112 56.6588 11.112H57.8108C57.9174 11.112 58.0081 11.1493 58.0828 11.224C58.1574 11.288 58.1948 11.3733 58.1948 11.48V12.632C58.1948 12.7387 58.1574 12.8293 58.0828 12.904C58.0081 12.968 57.9174 13 57.8108 13H56.6588ZM60.402 13C60.2953 13 60.2047 12.968 60.13 12.904C60.066 12.8293 60.034 12.7387 60.034 12.632V12.12C60.034 11.8747 60.1673 11.64 60.434 11.416L63.826 8.024C64.6473 7.34133 65.2127 6.78667 65.522 6.36C65.8313 5.92267 65.986 5.464 65.986 4.984C65.986 4.36533 65.81 3.88 65.458 3.528C65.1167 3.176 64.6153 3 63.954 3C63.3353 3 62.8393 3.18667 62.466 3.56C62.0927 3.92267 61.8633 4.408 61.778 5.016C61.7567 5.144 61.7033 5.24 61.618 5.304C61.5433 5.35733 61.458 5.384 61.362 5.384H60.53C60.434 5.384 60.354 5.35733 60.29 5.304C60.226 5.24 60.194 5.16533 60.194 5.08C60.2153 4.504 60.37 3.95467 60.658 3.432C60.946 2.89867 61.3673 2.46667 61.922 2.136C62.4873 1.79467 63.1647 1.624 63.954 1.624C65.1593 1.624 66.066 1.93867 66.674 2.568C67.2927 3.18667 67.602 3.976 67.602 4.936C67.602 5.608 67.4313 6.216 67.09 6.76C66.7593 7.29333 66.242 7.86933 65.538 8.488L62.466 11.608H67.458C67.5753 11.608 67.666 11.6453 67.73 11.72C67.8047 11.784 67.842 11.8693 67.842 11.976V12.632C67.842 12.7387 67.8047 12.8293 67.73 12.904C67.6553 12.968 67.5647 13 67.458 13H60.402ZM111.057 13C110.95 13 110.859 12.968 110.785 12.904C110.721 12.8293 110.689 12.7387 110.689 12.632V3.672L108.033 5.72C107.958 5.784 107.878 5.816 107.793 5.816C107.697 5.816 107.606 5.76267 107.521 5.656L107.105 5.128C107.051 5.05333 107.025 4.97867 107.025 4.904C107.025 4.776 107.078 4.67467 107.185 4.6L110.673 1.912C110.79 1.83733 110.929 1.8 111.089 1.8H111.905C112.011 1.8 112.097 1.83733 112.161 1.912C112.235 1.976 112.273 2.06133 112.273 2.168V12.632C112.273 12.7387 112.235 12.8293 112.161 12.904C112.097 12.968 112.011 13 111.905 13H111.057ZM118.252 13.16C117.41 13.16 116.679 13.0267 116.06 12.76C115.452 12.4827 114.988 12.1253 114.668 11.688C114.359 11.2507 114.194 10.792 114.172 10.312C114.172 10.216 114.204 10.1413 114.268 10.088C114.332 10.024 114.412 9.992 114.508 9.992H115.292C115.516 9.992 115.666 10.1093 115.74 10.344C115.879 10.8773 116.178 11.256 116.636 11.48C117.095 11.6933 117.634 11.8 118.252 11.8C119.01 11.8 119.612 11.624 120.06 11.272C120.508 10.9093 120.732 10.392 120.732 9.72C120.732 8.42933 119.948 7.784 118.38 7.784H116.86C116.754 7.784 116.663 7.752 116.588 7.688C116.524 7.61333 116.492 7.52267 116.492 7.416V6.984C116.492 6.83467 116.551 6.69067 116.668 6.552L119.772 3.16H115.052C114.946 3.16 114.855 3.128 114.78 3.064C114.716 2.98933 114.684 2.89867 114.684 2.792V2.184C114.684 2.07733 114.716 1.98667 114.78 1.912C114.855 1.83733 114.946 1.8 115.052 1.8H121.436C121.554 1.8 121.644 1.83733 121.708 1.912C121.783 1.976 121.82 2.06667 121.82 2.184V2.76C121.82 2.888 121.762 3.01067 121.644 3.128L118.556 6.568L118.812 6.584C119.9 6.616 120.759 6.89867 121.388 7.432C122.018 7.96533 122.332 8.744 122.332 9.768C122.332 10.4613 122.156 11.064 121.804 11.576C121.452 12.088 120.967 12.4827 120.348 12.76C119.73 13.0267 119.031 13.16 118.252 13.16ZM128.182 13.16C127.35 13.16 126.619 13.0267 125.99 12.76C125.36 12.4827 124.87 12.088 124.518 11.576C124.166 11.064 123.99 10.4667 123.99 9.784C123.99 9.15467 124.144 8.60533 124.454 8.136C124.763 7.656 125.184 7.288 125.718 7.032C125.291 6.78667 124.96 6.46667 124.726 6.072C124.502 5.66667 124.39 5.19733 124.39 4.664C124.39 3.72533 124.731 2.98933 125.414 2.456C126.107 1.912 127.03 1.64 128.182 1.64C129.323 1.64 130.235 1.912 130.918 2.456C131.611 2.98933 131.958 3.72 131.958 4.648C131.958 5.18133 131.84 5.65067 131.606 6.056C131.382 6.45067 131.062 6.776 130.646 7.032C131.179 7.288 131.6 7.656 131.91 8.136C132.219 8.60533 132.374 9.15467 132.374 9.784C132.374 10.4667 132.198 11.064 131.846 11.576C131.494 12.088 130.998 12.4827 130.358 12.76C129.728 13.0267 129.003 13.16 128.182 13.16ZM128.182 6.456C128.822 6.44533 129.36 6.28 129.798 5.96C130.235 5.64 130.454 5.21867 130.454 4.696C130.454 4.16267 130.235 3.736 129.798 3.416C129.371 3.08533 128.832 2.92 128.182 2.92C127.52 2.92 126.971 3.08 126.534 3.4C126.107 3.72 125.894 4.152 125.894 4.696C125.894 5.22933 126.107 5.656 126.534 5.976C126.971 6.296 127.52 6.456 128.182 6.456ZM128.182 11.88C128.928 11.88 129.552 11.688 130.054 11.304C130.555 10.92 130.806 10.4133 130.806 9.784C130.806 9.15467 130.555 8.65333 130.054 8.28C129.552 7.90667 128.928 7.72 128.182 7.72C127.424 7.72 126.795 7.90667 126.294 8.28C125.792 8.65333 125.542 9.15467 125.542 9.784C125.542 10.4133 125.792 10.92 126.294 11.304C126.795 11.688 127.424 11.88 128.182 11.88ZM134.549 13C134.443 13 134.352 12.968 134.277 12.904C134.213 12.8293 134.181 12.7387 134.181 12.632V11.48C134.181 11.3733 134.213 11.288 134.277 11.224C134.352 11.1493 134.443 11.112 134.549 11.112H135.701C135.808 11.112 135.899 11.1493 135.973 11.224C136.048 11.288 136.085 11.3733 136.085 11.48V12.632C136.085 12.7387 136.048 12.8293 135.973 12.904C135.899 12.968 135.808 13 135.701 13H134.549ZM138.293 13C138.186 13 138.095 12.968 138.021 12.904C137.957 12.8293 137.925 12.7387 137.925 12.632V12.12C137.925 11.8747 138.058 11.64 138.325 11.416L141.717 8.024C142.538 7.34133 143.103 6.78667 143.413 6.36C143.722 5.92267 143.877 5.464 143.877 4.984C143.877 4.36533 143.701 3.88 143.349 3.528C143.007 3.176 142.506 3 141.845 3C141.226 3 140.73 3.18667 140.357 3.56C139.983 3.92267 139.754 4.408 139.669 5.016C139.647 5.144 139.594 5.24 139.509 5.304C139.434 5.35733 139.349 5.384 139.253 5.384H138.421C138.325 5.384 138.245 5.35733 138.181 5.304C138.117 5.24 138.085 5.16533 138.085 5.08C138.106 4.504 138.261 3.95467 138.549 3.432C138.837 2.89867 139.258 2.46667 139.813 2.136C140.378 1.79467 141.055 1.624 141.845 1.624C143.05 1.624 143.957 1.93867 144.565 2.568C145.183 3.18667 145.493 3.976 145.493 4.936C145.493 5.608 145.322 6.216 144.981 6.76C144.65 7.29333 144.133 7.86933 143.429 8.488L140.357 11.608H145.349C145.466 11.608 145.557 11.6453 145.621 11.72C145.695 11.784 145.733 11.8693 145.733 11.976V12.632C145.733 12.7387 145.695 12.8293 145.621 12.904C145.546 12.968 145.455 13 145.349 13H138.293ZM151.459 13.16C150.606 13.16 149.865 12.9893 149.235 12.648C148.606 12.296 148.126 11.8267 147.795 11.24C147.465 10.6533 147.299 10.0133 147.299 9.32C147.299 8.75467 147.411 8.22133 147.635 7.72C147.87 7.208 148.131 6.75467 148.419 6.36L151.459 2.12C151.47 2.10933 151.502 2.072 151.555 2.008C151.598 1.944 151.657 1.896 151.731 1.864C151.806 1.82133 151.891 1.8 151.987 1.8H152.835C152.931 1.8 153.006 1.83733 153.059 1.912C153.123 1.976 153.155 2.056 153.155 2.152C153.155 2.22667 153.134 2.296 153.091 2.36L150.755 5.624C150.99 5.54933 151.294 5.512 151.667 5.512C152.435 5.52267 153.113 5.69867 153.699 6.04C154.297 6.38133 154.755 6.84 155.075 7.416C155.406 7.992 155.571 8.62133 155.571 9.304C155.571 9.98667 155.406 10.6267 155.075 11.224C154.755 11.8107 154.281 12.28 153.651 12.632C153.033 12.984 152.302 13.16 151.459 13.16ZM151.443 11.8C151.902 11.8 152.323 11.704 152.707 11.512C153.102 11.32 153.411 11.0373 153.635 10.664C153.87 10.28 153.987 9.82667 153.987 9.304C153.987 8.792 153.87 8.34933 153.635 7.976C153.411 7.60267 153.102 7.32 152.707 7.128C152.323 6.936 151.902 6.84 151.443 6.84C150.995 6.84 150.574 6.936 150.179 7.128C149.795 7.32 149.486 7.60267 149.251 7.976C149.017 8.34933 148.899 8.792 148.899 9.304C148.899 9.82667 149.017 10.28 149.251 10.664C149.486 11.0373 149.795 11.32 150.179 11.512C150.563 11.704 150.985 11.8 151.443 11.8ZM194.072 13C193.966 13 193.875 12.968 193.8 12.904C193.736 12.8293 193.704 12.7387 193.704 12.632V3.672L191.048 5.72C190.974 5.784 190.894 5.816 190.808 5.816C190.712 5.816 190.622 5.76267 190.536 5.656L190.12 5.128C190.067 5.05333 190.04 4.97867 190.04 4.904C190.04 4.776 190.094 4.67467 190.2 4.6L193.688 1.912C193.806 1.83733 193.944 1.8 194.104 1.8H194.92C195.027 1.8 195.112 1.83733 195.176 1.912C195.251 1.976 195.288 2.06133 195.288 2.168V12.632C195.288 12.7387 195.251 12.8293 195.176 12.904C195.112 12.968 195.027 13 194.92 13H194.072ZM201.572 13.16C200.196 13.16 199.188 12.76 198.548 11.96C197.908 11.16 197.567 10.1093 197.524 8.808C197.513 8.52 197.508 8.056 197.508 7.416C197.508 6.75467 197.513 6.27467 197.524 5.976C197.556 4.696 197.897 3.656 198.548 2.856C199.199 2.04533 200.207 1.64 201.572 1.64C202.948 1.64 203.961 2.04533 204.612 2.856C205.263 3.656 205.604 4.696 205.636 5.976C205.657 6.57333 205.668 7.05333 205.668 7.416C205.668 7.768 205.657 8.232 205.636 8.808C205.593 10.1093 205.252 11.16 204.612 11.96C203.972 12.76 202.959 13.16 201.572 13.16ZM201.572 11.784C202.372 11.784 202.975 11.5173 203.38 10.984C203.796 10.4507 204.015 9.69867 204.036 8.728C204.057 8.10933 204.068 7.66133 204.068 7.384C204.068 7.08533 204.057 6.648 204.036 6.072C204.015 5.112 203.801 4.36 203.396 3.816C202.991 3.272 202.383 3 201.572 3C200.772 3 200.164 3.272 199.748 3.816C199.343 4.36 199.129 5.112 199.108 6.072L199.092 7.384L199.108 8.728C199.129 9.69867 199.343 10.4507 199.748 10.984C200.164 11.5173 200.772 11.784 201.572 11.784ZM209.744 13C209.648 13 209.568 12.968 209.504 12.904C209.451 12.8293 209.424 12.744 209.424 12.648C209.424 12.5733 209.446 12.504 209.488 12.44L211.936 9.032C211.68 9.096 211.392 9.128 211.072 9.128C210.315 9.11733 209.643 8.94133 209.056 8.6C208.48 8.25867 208.038 7.80533 207.728 7.24C207.419 6.67467 207.264 6.072 207.264 5.432C207.264 4.792 207.414 4.184 207.712 3.608C208.022 3.02133 208.48 2.54667 209.088 2.184C209.696 1.82133 210.432 1.64 211.296 1.64C212.16 1.64 212.896 1.816 213.504 2.168C214.123 2.52 214.587 2.984 214.896 3.56C215.206 4.136 215.36 4.74933 215.36 5.4C215.36 5.976 215.259 6.488 215.056 6.936C214.854 7.37333 214.571 7.85333 214.208 8.376L211.12 12.68C211.046 12.776 210.971 12.856 210.896 12.92C210.832 12.9733 210.736 13 210.608 13H209.744ZM211.296 7.832C211.744 7.832 212.155 7.736 212.528 7.544C212.912 7.34133 213.216 7.05867 213.44 6.696C213.664 6.32267 213.776 5.896 213.776 5.416C213.776 4.936 213.664 4.51467 213.44 4.152C213.216 3.77867 212.912 3.496 212.528 3.304C212.155 3.10133 211.744 3 211.296 3C210.848 3 210.438 3.10133 210.064 3.304C209.691 3.496 209.392 3.77867 209.168 4.152C208.955 4.51467 208.848 4.936 208.848 5.416C208.848 5.896 208.955 6.32267 209.168 6.696C209.392 7.05867 209.691 7.34133 210.064 7.544C210.438 7.736 210.848 7.832 211.296 7.832ZM221.229 13.16C220.397 13.16 219.666 13.0267 219.037 12.76C218.407 12.4827 217.917 12.088 217.565 11.576C217.213 11.064 217.037 10.4667 217.037 9.784C217.037 9.15467 217.191 8.60533 217.501 8.136C217.81 7.656 218.231 7.288 218.765 7.032C218.338 6.78667 218.007 6.46667 217.773 6.072C217.549 5.66667 217.437 5.19733 217.437 4.664C217.437 3.72533 217.778 2.98933 218.461 2.456C219.154 1.912 220.077 1.64 221.229 1.64C222.37 1.64 223.282 1.912 223.965 2.456C224.658 2.98933 225.005 3.72 225.005 4.648C225.005 5.18133 224.887 5.65067 224.653 6.056C224.429 6.45067 224.109 6.776 223.693 7.032C224.226 7.288 224.647 7.656 224.957 8.136C225.266 8.60533 225.421 9.15467 225.421 9.784C225.421 10.4667 225.245 11.064 224.893 11.576C224.541 12.088 224.045 12.4827 223.405 12.76C222.775 13.0267 222.05 13.16 221.229 13.16ZM221.229 6.456C221.869 6.44533 222.407 6.28 222.845 5.96C223.282 5.64 223.501 5.21867 223.501 4.696C223.501 4.16267 223.282 3.736 222.845 3.416C222.418 3.08533 221.879 2.92 221.229 2.92C220.567 2.92 220.018 3.08 219.581 3.4C219.154 3.72 218.941 4.152 218.941 4.696C218.941 5.22933 219.154 5.656 219.581 5.976C220.018 6.296 220.567 6.456 221.229 6.456ZM221.229 11.88C221.975 11.88 222.599 11.688 223.101 11.304C223.602 10.92 223.853 10.4133 223.853 9.784C223.853 9.15467 223.602 8.65333 223.101 8.28C222.599 7.90667 221.975 7.72 221.229 7.72C220.471 7.72 219.842 7.90667 219.341 8.28C218.839 8.65333 218.589 9.15467 218.589 9.784C218.589 10.4133 218.839 10.92 219.341 11.304C219.842 11.688 220.471 11.88 221.229 11.88ZM231.401 13.16C230.569 13.16 229.838 13.0267 229.209 12.76C228.579 12.4827 228.089 12.088 227.737 11.576C227.385 11.064 227.209 10.4667 227.209 9.784C227.209 9.15467 227.363 8.60533 227.673 8.136C227.982 7.656 228.403 7.288 228.937 7.032C228.51 6.78667 228.179 6.46667 227.945 6.072C227.721 5.66667 227.609 5.19733 227.609 4.664C227.609 3.72533 227.95 2.98933 228.633 2.456C229.326 1.912 230.249 1.64 231.401 1.64C232.542 1.64 233.454 1.912 234.137 2.456C234.83 2.98933 235.177 3.72 235.177 4.648C235.177 5.18133 235.059 5.65067 234.825 6.056C234.601 6.45067 234.281 6.776 233.865 7.032C234.398 7.288 234.819 7.656 235.128 8.136C235.438 8.60533 235.593 9.15467 235.593 9.784C235.593 10.4667 235.417 11.064 235.065 11.576C234.713 12.088 234.217 12.4827 233.577 12.76C232.947 13.0267 232.222 13.16 231.401 13.16ZM231.401 6.456C232.041 6.44533 232.579 6.28 233.017 5.96C233.454 5.64 233.673 5.21867 233.673 4.696C233.673 4.16267 233.454 3.736 233.017 3.416C232.59 3.08533 232.051 2.92 231.401 2.92C230.739 2.92 230.19 3.08 229.753 3.4C229.326 3.72 229.113 4.152 229.113 4.696C229.113 5.22933 229.326 5.656 229.753 5.976C230.19 6.296 230.739 6.456 231.401 6.456ZM231.401 11.88C232.147 11.88 232.771 11.688 233.273 11.304C233.774 10.92 234.025 10.4133 234.025 9.784C234.025 9.15467 233.774 8.65333 233.273 8.28C232.771 7.90667 232.147 7.72 231.401 7.72C230.643 7.72 230.014 7.90667 229.513 8.28C229.011 8.65333 228.761 9.15467 228.761 9.784C228.761 10.4133 229.011 10.92 229.513 11.304C230.014 11.688 230.643 11.88 231.401 11.88ZM237.768 13C237.661 13 237.571 12.968 237.496 12.904C237.432 12.8293 237.4 12.7387 237.4 12.632V11.48C237.4 11.3733 237.432 11.288 237.496 11.224C237.571 11.1493 237.661 11.112 237.768 11.112H238.92C239.027 11.112 239.117 11.1493 239.192 11.224C239.267 11.288 239.304 11.3733 239.304 11.48V12.632C239.304 12.7387 239.267 12.8293 239.192 12.904C239.117 12.968 239.027 13 238.92 13H237.768ZM242.259 13C242.163 13 242.083 12.968 242.019 12.904C241.966 12.8293 241.939 12.744 241.939 12.648L241.971 12.504L245.955 3.192H240.707C240.6 3.192 240.51 3.16 240.435 3.096C240.371 3.02133 240.339 2.93067 240.339 2.824V2.184C240.339 2.06667 240.371 1.976 240.435 1.912C240.51 1.83733 240.6 1.8 240.707 1.8H247.267C247.384 1.8 247.475 1.83733 247.539 1.912C247.614 1.976 247.651 2.06667 247.651 2.184V2.776C247.651 2.968 247.608 3.176 247.523 3.4L243.587 12.6C243.534 12.7173 243.47 12.8133 243.395 12.888C243.331 12.9627 243.24 13 243.123 13H242.259ZM249.23 13C249.123 13 249.033 12.968 248.958 12.904C248.894 12.8293 248.862 12.7387 248.862 12.632V12.12C248.862 11.8747 248.995 11.64 249.262 11.416L252.654 8.024C253.475 7.34133 254.041 6.78667 254.35 6.36C254.659 5.92267 254.814 5.464 254.814 4.984C254.814 4.36533 254.638 3.88 254.286 3.528C253.945 3.176 253.443 3 252.782 3C252.163 3 251.667 3.18667 251.294 3.56C250.921 3.92267 250.691 4.408 250.606 5.016C250.585 5.144 250.531 5.24 250.446 5.304C250.371 5.35733 250.286 5.384 250.19 5.384H249.358C249.262 5.384 249.182 5.35733 249.118 5.304C249.054 5.24 249.022 5.16533 249.022 5.08C249.043 4.504 249.198 3.95467 249.486 3.432C249.774 2.89867 250.195 2.46667 250.75 2.136C251.315 1.79467 251.993 1.624 252.782 1.624C253.987 1.624 254.894 1.93867 255.502 2.568C256.121 3.18667 256.43 3.976 256.43 4.936C256.43 5.608 256.259 6.216 255.918 6.76C255.587 7.29333 255.07 7.86933 254.366 8.488L251.294 11.608H256.286C256.403 11.608 256.494 11.6453 256.558 11.72C256.633 11.784 256.67 11.8693 256.67 11.976V12.632C256.67 12.7387 256.633 12.8293 256.558 12.904C256.483 12.968 256.393 13 256.286 13H249.23Z" fill="#7A7A7A"/>
</svg>
